<svg version="1.1" id="图层_1" xmlns="http://www.w3.org/2000/svg" xmlns:xlink="http://www.w3.org/1999/xlink" x="0px" y="0px"
	 viewBox="0 0 12 12" style="enable-background:new 0 0 12 12;" xml:space="preserve">
<style type="text/css">
	.st0{fill:#0078D7;}
</style>
<g>
	<path class="st0" d="M6,12c-3.3,0-6-2.7-6-6s2.7-6,6-6s6,2.7,6,6S9.3,12,6,12z M1.7,8.4c0.8,1.5,2.5,2.5,4.3,2.5
		c1.9,0,3.5-1,4.3-2.5H1.7z M1.3,7.3h9.5c0.1-0.4,0.2-0.8,0.2-1.3s-0.1-0.9-0.2-1.3H1.3C1.1,5.1,1.1,5.6,1.1,6S1.1,6.9,1.3,7.3z
		 M1.7,3.6h8.6C9.5,2.1,7.9,1.1,6,1.1C4.1,1.1,2.5,2.1,1.7,3.6z"/>
	<path class="st0" d="M6.3,12c-0.1,0-0.2,0-0.3-0.1c0,0,0,0,0,0c0,0,0,0,0,0c-0.3,0.2-0.6,0.1-0.8-0.2c-2.2-3.5-2.2-8,0-11.5
		C5.4,0,5.7-0.1,6,0.1c0,0,0,0,0,0c0,0,0,0,0,0C6.3-0.1,6.6,0,6.8,0.3c2.2,3.5,2.2,8,0,11.5C6.7,11.9,6.5,12,6.3,12z M6,1.1
		c-1.7,3-1.7,6.8,0,9.8C7.7,7.9,7.7,4.1,6,1.1z"/>
</g>
</svg>
